<?xml version="1.0"?>

<svg xmlns="http://www.w3.org/2000/svg" viewBox="0 0 466.7 467.2" height="467.2" width="466.7">  <path d="m 233.4,332.8 c -76.7,0 -139,-62.2 -139,-138.9 0,-76.7 62.3,-138.9 139,-138.9 76.6,0 138.9,62.2 138.9,138.9 0,76.7 -62.3,138.9 -138.9,138.9 z m 0,-6 c 73.4,0 132.9,-59.4 132.9,-132.9 C 366.3,120.4 306.8,61 233.4,61 c -73.5,0 -133,59.4 -133,132.9 0,73.5 59.5,132.9 133,132.9 z m 2.3,-185.8 35.2,86.8 -53.2,-41.8 18,-45 z m 62.5,106.8 -54.1,-130.2 c -1.6,-3.8 -4.7,-5.7 -8.4,-5.7 -3.8,0 -7.1,1.9 -8.6,5.7 l -59.4,142.8 20.3,0 23.5,-58.9 70.2,56.7 c 2.8,2.3 4.8,3.3 7.5,3.3 5.3,0 9.9,-3.9 9.9,-9.7 0,-0.9 -0.3,-2.4 -0.9,-4 M 92.2,408.1 76.8,372.4 c -0.5,-1 -1.3,-1.6 -2.4,-1.6 -1.1,0 -2,0.6 -2.5,1.6 l -16.9,39.2 5.8,0 6.7,-16.2 20,15.5 c 0.8,0.7 1.4,1 2.1,1 1.5,0 2.9,-1.1 2.9,-2.7 0,-0.3 -0.1,-0.7 -0.3,-1.1 m -17.8,-29.3 10,23.8 -15.1,-11.5 5.1,-12.3 z m 323.2,33.4 c -11.7,0 -18.7,-4.1 -18.7,-12.4 0,-3.9 2.3,-7.7 6.8,-9.4 -3.6,-2.2 -5.5,-5.3 -5.5,-8.7 0,-7.5 6.1,-11.1 17.5,-11.1 3.9,0 9.3,0.5 13.8,1.4 l -0.6,4.5 c -4.8,-0.7 -9.3,-1.1 -13.6,-1.1 -7.4,0 -11.4,1.9 -11.4,6.6 0,3.6 3.7,6.6 8.5,6.6 l 9.8,0 c 1.4,0 2.5,1 2.5,2.2 0,1.4 -1.1,2.4 -2.5,2.4 l -10.6,0 c -5.5,0 -9,2.6 -9,6.6 0,5.9 5.7,7.6 12.9,7.6 3.9,0 9.2,-0.5 13.4,-1.4 l 0.8,4.4 c -4,1.1 -9.4,1.8 -14.1,1.8 m -64.7,-0.7 c -1.6,0 -2.8,-1.3 -2.8,-2.7 l 0,-37.6 5.7,0 0,35.4 22.8,0 0,4.9 -25.7,0 z m -41.1,0 -17.1,0 c -1.6,0 -2.9,-1.2 -2.9,-2.7 l 0,-34.9 c 0,-1.4 1.3,-2.7 2.9,-2.7 l 14.1,0 c 8.7,0 13.9,4.1 13.9,10.4 0,3.5 -2.2,6.7 -5.4,8.5 4.8,1.4 8.1,5.2 8.1,9.9 0,6.4 -5.6,11.5 -13.6,11.5 m -2.8,-35.7 -11.5,0 0,12.9 11.5,0 c 4.6,0 7.9,-2.8 7.9,-6.6 0,-3.9 -2.9,-6.3 -7.9,-6.3 m 2.7,17.4 -14.2,0 0,13.7 14.2,0 c 4.9,0 7.8,-2.9 7.8,-6.9 0,-3.9 -3,-6.8 -7.8,-6.8 m -54.4,18.3 5.7,0 0,-40.2 -5.7,0 0,40.2 z m -42.6,0.7 c -5.5,0 -11.3,-1.1 -16.7,-3 l 1.3,-4.4 c 5,1.5 10.4,2.6 15.4,2.6 7,0 10.6,-2.3 10.6,-5.7 0,-3 -2.8,-4.5 -12.6,-8.9 -9.7,-4.3 -13.5,-7.1 -13.5,-12.5 0,-6.9 5.5,-9.7 15.9,-9.7 4.4,0 11.1,0.9 14.9,2 l -0.9,4.5 c -4.2,-1 -9.5,-1.7 -13.8,-1.7 -7.4,0 -10.4,1.4 -10.4,4.7 0,3.2 2.2,4.6 12.5,9.2 10.9,4.8 13.7,7.2 13.7,12.1 0,7.2 -7.2,10.8 -16.4,10.8 m -45.8,-0.4 c -0.8,0 -1.6,-0.2 -2.1,-0.9 l -24.3,-30.2 0,30.8 -5.5,0 0,-38 c 0,-1.5 1.3,-2.7 2.8,-2.7 0.9,0 1.6,0.2 2.2,1 l 24.2,30.1 0,-30.7 5.5,0 0,37.9 c 0,1.6 -1.3,2.7 -2.8,2.7"></path> </svg>